<?xml version="1.0" encoding="UTF-8"?>
<svg width="600" height="450" version="1.1" viewBox="0 0 600.00001 450.00001" xmlns="http://www.w3.org/2000/svg">
 <g transform="translate(0 -602.36)">
  <g transform="scale(.73106 1.3679)">
   <path d="m77.756 678.76q-7.0203-8.8578-11.873-20.731-4.8529-11.873-4.8529-24.594 0-11.214 3.6279-21.485 4.2404-11.92 13.098-23.746h6.0779q-5.701 9.8001-7.5385 13.993-2.8741 6.502-4.5231 13.569-2.026 8.8106-2.026 17.716 0 22.663 14.088 45.278h-6.0779z" style=""/>
   <path d="m156.02 596.64q-7.9154 21.862-17.716 34.677-12.439 16.208-29.777 27.139l-9.0462-7.1616q16.962-8.6693 28.646-22.616 12.062-14.323 18.846-39.577l10.177 4.5231q2.6385 1.5077-1.1308 3.0154z" style=""/>
   <path d="m203.84 608.18h-14.747v-6.502h31.191q5.0885 0 7.6328-2.1202 2.5442-2.1673 2.5442-6.4549 0-4.3818-4.2404-7.2087h1.6962q4.9943 3.6279 4.9943 9.8472 0 5.5126-3.4866 8.9991-3.4395 3.4394-9.5645 3.4394h-1.6962q7.3501 3.1096 11.025 8.151 3.7221 5.0414 3.7221 12.015 0 6.4549-2.8741 11.355-2.827 4.8529-7.8212 7.727-4.9943 2.8741-11.59 2.8741-7.5385 0-14.559-5.6539-6.9731-5.6539-6.9731-15.878 0-6.9731 3.675-12.109 3.675-5.1827 11.072-8.4808zm25.066 16.679q0-7.9154-5.6068-12.297-5.6068-4.3818-12.25-4.3818-8.7635 0-13.381 5.5126-4.5702 5.4654-4.5702 11.779 0.0471 7.2087 5.1827 12.439 5.1827 5.1827 12.439 5.1827 6.6904 0 12.439-4.5702 5.7481-4.5702 5.7481-13.664zm-13.522 0.51828q0 2.4029-1.4135 3.5808t-3.0154 1.1779q-2.1673 0-3.2981-1.3664-1.0837-1.4135-1.0837-3.0625 0-1.8846 1.2721-3.1568 1.2721-1.3192 3.1096-1.3192 2.1673 0 3.2981 1.3664t1.1308 2.7798z" style=""/>
   <path d="m306.22 632.83h-9.4232v23.369h9.4232v-23.369zm18.846 3.7693q-10.177-4.9-12.439-8.2924v27.893h14.323v7.1616h-81.416v-7.1616h14.323v-27.139q-5.6539 4.9-12.815 8.2924l-3.7693-7.1616q20.354-9.0462 25.254-26.385h-22.239v-7.1616h24.5q-1.1308-4.5231-6.4078-11.685l6.7847-3.7693q5.6539 6.7847 8.2924 15.454h12.062q4.1462-7.1616 7.5385-16.962l8.6693 3.0154q1.5077 1.8846-1.5077 2.2616-4.1462 8.6693-6.7847 11.685h26.385v7.1616h-22.992q8.2924 18.092 26.762 24.877l-4.5231 7.9154zm-49.754-3.7693h-9.0462v23.369h9.0462v-23.369zm15.077 0h-8.6693v23.369h8.6693v-23.369zm18.846-7.1616q-10.19-10.94-13.96-21.87h-18.846q-3.3923 13.946-12.815 21.862h45.608z" style=""/>
   <path d="m354.04 608.18h-14.747v-6.502h31.191q5.0885 0 7.6328-2.1202 2.5442-2.1673 2.5442-6.4549 0-4.3818-4.2404-7.2087h1.6962q4.9943 3.6279 4.9943 9.8472 0 5.5126-3.4866 8.9991-3.4394 3.4394-9.5645 3.4394h-1.6962q7.3501 3.1096 11.025 8.151 3.7221 5.0414 3.7221 12.015 0 6.4549-2.8741 11.355-2.827 4.8529-7.8212 7.727-4.9943 2.8741-11.59 2.8741-7.5385 0-14.559-5.6539-6.9731-5.6539-6.9731-15.878 0-6.9731 3.675-12.109 3.675-5.1827 11.072-8.4808zm25.066 16.679q0-7.9154-5.6068-12.297-5.6068-4.3818-12.25-4.3818-8.7635 0-13.381 5.5126-4.5702 5.4654-4.5702 11.779 0.0471 7.2087 5.1827 12.439 5.1827 5.1827 12.439 5.1827 6.6904 0 12.439-4.5702 5.7481-4.5702 5.7481-13.664zm-13.522 0.51828q0 2.4029-1.4135 3.5808t-3.0154 1.1779q-2.1673 0-3.2981-1.3664-1.0837-1.4135-1.0837-3.0625 0-1.8846 1.2721-3.1568 1.2721-1.3192 3.1096-1.3192 2.1673 0 3.2981 1.3664t1.1308 2.7798z" style=""/>
   <path d="m399.75 678.76h-6.0779q14.088-22.616 14.088-45.278 0-8.8578-2.026-17.574-1.6019-7.0674-4.476-13.569-1.8375-4.2404-7.5856-14.135h6.0779q8.8578 11.826 13.098 23.746 3.6279 10.271 3.6279 21.485 0 12.721-4.9 24.594-4.8529 11.873-11.826 20.731z" style=""/>
   <path d="m488.65 596.64q-7.9154 21.862-17.716 34.677-12.439 16.208-29.777 27.139l-9.0462-7.1616q16.962-8.6693 28.646-22.616 12.062-14.323 18.846-39.577l10.177 4.5231q2.6385 1.5077-1.1308 3.0154z" style=""/>
   <path d="m587.41 590.23q2.2616 2.6385-2.6385 2.6385-25.254 19.223-52.016 22.992l-2.2616-8.6693q27.893-3.7693 51.262-23.369l5.6539 6.4078zm3.3923 22.239q2.2616 3.3923-1.5077 2.6385-23.746 18.092-52.016 22.616l-2.2616-8.2924q31.285-6.0308 50.508-22.616l5.277 5.6539zm7.5385 21.108q3.0154 3.3923-1.5077 2.6385-19.977 20.731-64.454 26.008l-2.2616-9.0462q44.477-5.6539 61.816-26.008l6.4077 6.4077z" style=""/>
   <path d="m612.1 639.14v-16.208h22.427v-58.329h15.077v58.329h22.474v16.208h-59.978z" style=""/>
   <path d="m670.14 639.14v-16.208h59.978v16.208h-59.978z" style=""/>
   <path d="m728.19 639.14v-16.208h22.427v-58.329h15.077v58.329h22.474v16.208h-59.978z" style=""/>
  </g>
  <text x="153.54318" y="963.46875" fill="#000000" font-family="sans-serif" font-size="40px" letter-spacing="0px" word-spacing="0px" line-height="125%" xml:space="preserve"><tspan x="153.54318" y="963.46875"/></text>
 </g>
</svg>
